<svg xmlns="http://www.w3.org/2000/svg" xmlns:svg="http://www.w3.org/2000/svg" id="svg2" width="1024" height="1024" version="1.1"><metadata id="metadata10"/><g id="layer3" style="display:inline"><path style="fill:#22864c;fill-opacity:1;fill-rule:nonzero;stroke:none" id="path3755" d="m 329.49518,33.541431 a 303.84586,295.95377 0 1 1 -607.69171,0 303.84586,295.95377 0 1 1 607.69171,0 z" transform="matrix(1.6455712,0,0,1.6894531,469.79221,455.33332)"/><path style="fill:#fff;fill-opacity:1;stroke:none" id="path4" d="m 205.24851,486.40495 c 0,2.61059 1.69276,3.91589 5.07829,3.91589 l 46.00996,0 c 2.61048,0 4.91506,-1.59075 6.91373,-4.77225 7.13809,-17.33545 18.27347,-31.67269 33.40614,-43.01171 15.13272,-11.33946 32.06016,-17.723 50.78232,-19.15063 l 16.76432,-2.38613 c 4.16048,0 6.24072,-1.79471 6.24072,-5.38414 l 2.38614,-16.39727 c 3.42627,-34.46666 18.02874,-63.40644 43.8074,-86.81934 25.77853,-23.41285 56.20706,-35.11928 91.28557,-35.11928 35.24193,0 65.8133,11.60445 91.71413,34.81335 25.90118,23.20897 40.62592,52.25072 44.17423,87.12527 l 2.38677,18.78341 c 0,3.58943 1.89654,5.38414 5.68961,5.38414 l 51.39443,0 c 28.87859,0 53.61704,10.15652 74.21533,30.46956 20.5984,20.31286 30.91821,44.70452 30.95942,73.17499 0.0416,28.47103 -10.27821,52.88331 -30.95942,73.23682 -20.67977,20.35361 -45.41821,30.51003 -74.21533,30.46925 l -220.19956,0 c -3.79326,0 -163.53189,5.38438 -163.53189,5.38438 l 0,48.12031 c -10e-6,3.58956 159.73863,1.4383 163.53189,1.4383 l 220.19956,0 c 28.87859,0 55.51382,-7.0564 79.90569,-21.1692 24.39193,-14.11333 43.70544,-33.38614 57.94055,-57.81841 14.23549,-24.43266 21.35324,-50.98647 21.35324,-79.66142 0,-28.87859 -7.11775,-55.45256 -21.35324,-79.72192 -14.23511,-24.26943 -33.54862,-43.50142 -57.94055,-57.69599 -24.39187,-14.1946 -51.0271,-21.25109 -79.90569,-21.16946 l -9.85044,0 c -9.95284,-42.42054 -32.2238,-77.17277 -66.81287,-104.2567 -34.58909,-27.08387 -74.15437,-40.62581 -118.69586,-40.62581 -45.03096,0 -84.88175,13.99062 -119.55238,41.97187 -34.67065,27.98127 -56.67631,63.7736 -66.017,107.377 -27.28783,6.3631 -51.4757,19.45637 -72.56363,39.27982 -21.08791,19.82332 -35.73114,43.27693 -43.92971,70.36082 l 0,1.16249 c -0.40791,1.01979 -0.61187,1.91712 -0.61187,2.69199 z"/></g></svg>