<svg xmlns="http://www.w3.org/2000/svg" xmlns:svg="http://www.w3.org/2000/svg" id="svg7384" width="15.974" height="16" version="1.1"><metadata id="metadata90"/><title id="title9167">Gnome Symbolic Icon Theme</title><g id="layer12" transform="translate(-221.00011,-807)" style="display:inline"><path id="path13099" d="m 223.8125,808.03125 a 1.0001,1.0001 0 0 0 -0.8125,1 l 0,12.9375 a 1.0001,1.0001 0 0 0 1,1 l 10,0 a 1.0001,1.0001 0 0 0 1,-1 l 0,-5.03125 a 1.0001,1.0001 0 1 0 -2,0 l 0,4.03125 -8,0 0,-10.9375 1.96875,0 a 1.0001,1.0001 0 1 0 0,-2 l -2.96875,0 a 1.0001,1.0001 0 0 0 -0.1875,0 z" style="font-size:medium;font-style:normal;font-variant:normal;font-weight:400;font-stretch:normal;text-indent:0;text-align:start;text-decoration:none;line-height:normal;letter-spacing:normal;word-spacing:normal;text-transform:none;direction:ltr;block-progression:tb;writing-mode:lr-tb;text-anchor:start;baseline-shift:baseline;color:#000;fill:#bebebe;fill-opacity:1;stroke:none;stroke-width:2;marker:none;visibility:visible;display:inline;overflow:visible;enable-background:accumulate;font-family:Sans;-inkscape-font-specification:Sans"/><path id="path13075" d="m 230.00021,808.99662 0,1.99673 -2,0 0,1.99673 2,0 0,1.99674 2,0 0,-1.99674 2,0 0,-1.99673 -2,0 0,-1.99673 -2,0 z" style="fill:#bebebe;fill-opacity:1;stroke:none;display:inline"/></g></svg>