<svg xmlns="http://www.w3.org/2000/svg" xmlns:svg="http://www.w3.org/2000/svg" id="svg7384" width="16" height="16" version="1.1"><metadata id="metadata90"/><title id="title9167">Gnome Symbolic Icon Theme</title><g id="layer13" transform="translate(-501.0002,-195)"><g id="g4109" transform="matrix(1,0,0,-1,0,406.02308)"><path style="font-size:medium;font-style:normal;font-variant:normal;font-weight:400;font-stretch:normal;text-indent:0;text-align:start;text-decoration:none;line-height:normal;letter-spacing:normal;word-spacing:normal;text-transform:none;direction:ltr;block-progression:tb;writing-mode:lr-tb;text-anchor:start;color:#bebebe;fill:#bebebe;fill-opacity:1;fill-rule:nonzero;stroke:none;stroke-width:1.78124988;marker:none;visibility:visible;display:inline;overflow:visible;enable-background:new;font-family:Andale Mono;-inkscape-font-specification:Andale Mono" id="path11142" d="m 503.0002,203.00315 0,1 c -1.2e-4,0.0104 -4.6e-4,0.0208 0,0.0313 0.0112,0.25495 0.12858,0.50987 0.3125,0.6875 l 5.21875,5.28125 5.1875,-5.28125 c 0.18819,-0.18821 0.28125,-0.45351 0.28125,-0.7188 l 0,-1 -1,0 c -0.26529,0 -0.53058,0.0931 -0.71875,0.28125 l -3.75,3.8125 -3.78125,-3.8125 c -0.19463,-0.21074 -0.46925,-0.30316 -0.75,-0.28125 l -1,0 z"/><path style="color:#000;fill:#bebebe;fill-opacity:1;fill-rule:evenodd;stroke:none;stroke-width:1;marker:none;visibility:visible;display:inline;overflow:visible;enable-background:new" id="path11168" d="m 269.05412,-13.455417 c 0,0.842068 -0.68263,1.524699 -1.5247,1.524699 -0.84207,0 -1.5247,-0.682631 -1.5247,-1.524699 0,-0.842068 0.68263,-1.524699 1.5247,-1.524699 0.84207,0 1.5247,0.682631 1.5247,1.524699 z" transform="translate(241.0002,215)"/><path style="color:#000;fill:#bebebe;fill-opacity:1;fill-rule:evenodd;stroke:none;stroke-width:1;marker:none;visibility:visible;display:inline;overflow:visible;enable-background:new" id="path11170" d="m 269.05412,-13.455417 c 0,0.842068 -0.68263,1.524699 -1.5247,1.524699 -0.84207,0 -1.5247,-0.682631 -1.5247,-1.524699 0,-0.842068 0.68263,-1.524699 1.5247,-1.524699 0.84207,0 1.5247,0.682631 1.5247,1.524699 z" transform="translate(241.0002,211)"/></g></g></svg>