<svg xmlns="http://www.w3.org/2000/svg" xmlns:svg="http://www.w3.org/2000/svg" id="svg7384" width="16" height="16" version="1.1"><metadata id="metadata90"/><title id="title9167">Gnome Symbolic Icon Theme</title><g id="layer12" transform="translate(-81.00015,-687)" style="display:inline"><path id="path3613-6-6-9" d="m 90.00016,694.00001 -10e-6,-1 c -3e-5,-0.26531 -0.0931,-0.53058 -0.28124,-0.71876 L 86.7189,689.28126 86.43765,689 l -0.87499,0 -0.28126,0.28126 -2.99999,3 c -0.18821,0.18818 -0.28121,0.45347 -0.28121,0.71876 l -1e-5,1 1,0 c 0.26531,4e-5 0.53059,-0.0931 0.71877,-0.28121 l 2.28124,-2.28126 2.28125,2.28125 c 0.18817,0.18815 0.45345,0.28125 0.71875,0.28125 l 1,0 z" style="font-size:medium;font-style:normal;font-variant:normal;font-weight:400;font-stretch:normal;text-indent:0;text-align:start;text-decoration:none;line-height:normal;letter-spacing:normal;word-spacing:normal;text-transform:none;direction:ltr;block-progression:tb;writing-mode:lr-tb;text-anchor:start;color:#000;fill:#bebebe;fill-opacity:1;stroke:none;stroke-width:2;marker:none;visibility:visible;display:inline;overflow:visible;enable-background:accumulate;font-family:Bitstream Vera Sans;-inkscape-font-specification:Bitstream Vera Sans"/><path id="path35770-1" d="m 85,691 0,7 2,0 0,-7 -2,0 z" style="font-size:medium;font-style:normal;font-variant:normal;font-weight:400;font-stretch:normal;text-indent:0;text-align:start;text-decoration:none;line-height:normal;letter-spacing:normal;word-spacing:normal;text-transform:none;direction:ltr;block-progression:tb;writing-mode:lr-tb;text-anchor:start;baseline-shift:baseline;color:#000;fill:#bebebe;fill-opacity:1;stroke:none;stroke-width:2;marker:none;visibility:visible;display:inline;overflow:visible;enable-background:accumulate;font-family:Sans;-inkscape-font-specification:Sans"/><path id="path3613-6-6-9-5" d="m 96.00016,694.99999 -10e-6,1 c -3e-5,0.26531 -0.0931,0.53058 -0.28124,0.71876 L 92.7189,699.71874 92.43765,700 l -0.87499,0 -0.28126,-0.28126 -2.99999,-3 c -0.18821,-0.18818 -0.28121,-0.45347 -0.28121,-0.71876 l -1e-5,-1 1,0 c 0.26531,-4e-5 0.53059,0.0931 0.71877,0.28121 l 2.28124,2.28126 2.28125,-2.28125 c 0.18817,-0.18815 0.45345,-0.28125 0.71875,-0.28125 l 1,0 z" style="font-size:medium;font-style:normal;font-variant:normal;font-weight:400;font-stretch:normal;text-indent:0;text-align:start;text-decoration:none;line-height:normal;letter-spacing:normal;word-spacing:normal;text-transform:none;direction:ltr;block-progression:tb;writing-mode:lr-tb;text-anchor:start;color:#000;fill:#bebebe;fill-opacity:1;stroke:none;stroke-width:2;marker:none;visibility:visible;display:inline;overflow:visible;enable-background:accumulate;font-family:Bitstream Vera Sans;-inkscape-font-specification:Bitstream Vera Sans"/><path id="path35770-1-5" d="m 91,691 0,7 2,0 0,-7 -2,0 z" style="font-size:medium;font-style:normal;font-variant:normal;font-weight:400;font-stretch:normal;text-indent:0;text-align:start;text-decoration:none;line-height:normal;letter-spacing:normal;word-spacing:normal;text-transform:none;direction:ltr;block-progression:tb;writing-mode:lr-tb;text-anchor:start;baseline-shift:baseline;color:#000;fill:#bebebe;fill-opacity:1;stroke:none;stroke-width:2;marker:none;visibility:visible;display:inline;overflow:visible;enable-background:accumulate;font-family:Sans;-inkscape-font-specification:Sans"/></g></svg>