<svg xmlns="http://www.w3.org/2000/svg" xmlns:svg="http://www.w3.org/2000/svg" id="svg7384" width="16" height="16" version="1.1"><metadata id="metadata90"/><title id="title9167">Gnome Symbolic Icon Theme</title><g id="layer12" transform="translate(-201.0004,-867)" style="display:inline"><path id="path4955-1-2" d="m 29,209 a 1,1 0 1 1 -2,0 1,1 0 1 1 2,0 z" transform="matrix(2.000025,0,0,2.000025,147.99952,456.9948)" style="fill:#bebebe;fill-opacity:1;stroke:none;display:inline"/><path id="path4957-2-4" d="m 29,209 a 1,1 0 1 1 -2,0 1,1 0 1 1 2,0 z" transform="matrix(2,0,0,2,153.00025,457)" style="fill:#bebebe;fill-opacity:1;stroke:none;display:inline"/><path id="path4959-4-6" d="m 29,209 a 1,1 0 1 1 -2,0 1,1 0 1 1 2,0 z" transform="matrix(2,0,0,2,158.0002,457)" style="fill:#bebebe;fill-opacity:1;stroke:none;display:inline"/></g></svg>